#!OML:ASF H:\GeneralSubjects\Female5\Project 1\Capture day 1\Session 1\Female5.ASF
:FULLY-SPECIFIED
:DEGREES
42
root -28.0589 15.6754 0.103616 142.618 -81.8159 -132.913
lowerback 12.1049 2.7469 7.03428
upperback -10.2992 4.99495 -0.0593064
thorax -18.149 1.23356 -5.31955
lowerneck -17.4315 -1.27558 -1.4971
upperneck 34.2125 -0.913352 -3.93606
head 14.7641 -1.51112 -1.6234
rclavicle 3.35449e-014 3.02153e-014
rhumerus -47.489 17.493 -87.1864
rradius 35.6572
rwrist -10.7256
rhand -25.8104 -21.4777
rfingers 7.12502
rthumb 0.728871 -51.4562
lclavicle 3.35449e-014 3.02153e-014
lhumerus -53.7724 -2.9064 74.196
lradius 28.8896
lwrist -4.74399
lhand -27.9796 27.051
lfingers 7.12502
lthumb -1.36625 57.0263
rfemur -1.59471 6.08954 36.4045
rtibia 14.5697
rfoot -20.5521 -2.99619
rtoes 1.1802
lfemur -40.3602 -23.4539 -4.98196
ltibia 13.3698
lfoot -26.0226 13.9647
ltoes -23.5007
43
root -27.7404 15.7062 0.068428 139.611 -82.232 -129.431
lowerback 12.205 2.63642 6.99893
upperback -10.2918 4.85674 0.00208857
thorax -18.2356 1.17694 -5.20153
lowerneck -17.4781 -1.29258 -1.50152
upperneck 33.9289 -0.89795 -3.98426
head 14.644 -1.49869 -1.62836
rclavicle -9.0447e-015 -2.3059e-014
rhumerus -47.6358 17.6914 -87.067
rradius 35.9045
rwrist -10.5875
rhand -25.8014 -21.4645
rfingers 7.12502
rthumb 0.737526 -51.443
lclavicle -9.0447e-015 -2.3059e-014
lhumerus -53.5498 -3.41176 75.023
lradius 29.101
lwrist -4.51144
lhand -27.8526 27.1887
lfingers 7.12502
lthumb -1.24351 57.1649
rfemur -3.15602 5.86274 36.5533
rtibia 14.209
rfoot -20.3325 -3.27606
rtoes 1.14648
lfemur -41.4102 -21.584 -5.52559
ltibia 14.7503
lfoot -24.5677 12.6115
ltoes -24.7939
44
root -27.4313 15.7403 0.03977 136.061 -82.5886 -125.479
lowerback 12.2893 2.52026 7.01194
upperback -10.2829 4.71951 0.068212
thorax -18.3068 1.11606 -5.10313
lowerneck -17.5467 -1.31934 -1.45708
upperneck 33.772 -0.931406 -4.0008
head 14.5861 -1.50092 -1.64278
rclavicle 1.90585e-014 0
rhumerus -47.8409 17.7611 -86.8967
rradius 36.0053
rwrist -10.3698
rhand -25.9216 -21.4393
rfingers 7.12502
rthumb 0.621452 -51.4181
lclavicle 1.90585e-014 0
lhumerus -53.2424 -3.87744 75.7289
lradius 29.2543
lwrist -4.34258
lhand -27.7469 27.4181
lfingers 7.12502
lthumb -1.14145 57.3948
rfemur -4.72759 5.55945 36.6841
rtibia 14.0297
rfoot -19.9088 -3.58378
rtoes 0.976486
lfemur -42.2836 -18.9065 -7.00202
ltibia 17.5521
lfoot -22.4857 10.1619
ltoes -25.506
45
root -27.1325 15.778 0.0180939 132.325 -82.8874 -121.443
lowerback 12.3827 2.40664 7.02694
upperback -10.265 4.58743 0.138119
thorax -18.3715 1.05847 -5.0025
lowerneck -17.6483 -1.35418 -1.37835
upperneck 33.7437 -1.0013 -3.99667
head 14.5934 -1.51597 -1.66676
rclavicle -1.26228e-014 -1.45113e-014
rhumerus -48.0955 17.6843 -86.6712
rradius 35.9486
rwrist -10.145
rhand -26.1275 -21.3962
rfingers 7.12502
rthumb 0.422565 -51.3755
lclavicle -1.26228e-014 -1.45113e-014
lhumerus -52.8481 -4.20364 76.2579
lradius 29.3533
lwrist -4.31193
lhand -27.5946 27.7376
lfingers 7.12502
lthumb -0.994341 57.715
rfemur -6.21424 5.23246 36.7762
rtibia 13.9191
rfoot -19.3076 -3.99553
rtoes 0.486311
lfemur -42.9597 -16.0402 -8.96483
ltibia 21.61
lfoot -20.8583 6.71727
ltoes -25.7958
46
root -26.8443 15.819 0.00282335 128.776 -83.1577 -117.724
lowerback 12.5044 2.30222 6.99306
upperback -10.2308 4.46011 0.205982
thorax -18.4354 1.0101 -4.87924
lowerneck -17.7742 -1.39786 -1.2861
upperneck 33.8175 -1.09909 -3.97754
head 14.6524 -1.54261 -1.69645
rclavicle 1.07344e-014 -7.95139e-015
rhumerus -48.3857 17.4517 -86.3783
rradius 35.7434
rwrist -9.93249
rhand -26.3601 -21.3492
rfingers 7.12502
rthumb 0.197982 -51.3289
lclavicle 1.07344e-014 -7.95139e-015
lhumerus -52.3605 -4.37233 76.6227
lradius 29.3758
lwrist -4.42445
lhand -27.4049 28.0738
lfingers 7.12502
lthumb -0.81118 58.052
rfemur -7.52707 4.92756 36.7936
rtibia 13.766
rfoot -18.5718 -4.55426
rtoes -0.559101
lfemur -43.3238 -13.414 -11.0562
ltibia 26.5515
lfoot -20.357 2.70966
ltoes -25.8753
47
root -26.5669 15.8622 -0.00727021 125.698 -83.4494 -114.609
lowerback 12.6495 2.21022 6.86383
upperback -10.1808 4.3294 0.257763
thorax -18.498 0.972178 -4.72134
lowerneck -17.913 -1.43324 -1.22567
upperneck 33.9633 -1.19322 -3.91382
head 14.7484 -1.56778 -1.70492
rclavicle -2.95692e-015 1.78906e-014
rhumerus -48.7213 17.0665 -86.025
rradius 35.4379
rwrist -9.73438
rhand -26.5477 -21.2967
rfingers 7.12502
rthumb 0.0167676 -51.2764
lclavicle -2.95692e-015 1.78906e-014
lhumerus -51.8045 -4.44056 76.876
lradius 29.3622
lwrist -4.61702
lhand -27.1812 28.414
lfingers 7.12502
lthumb -0.595107 58.3929
rfemur -8.60848 4.67582 36.6916
rtibia 13.4939
rfoot -17.7567 -5.204
rtoes -1.87852
lfemur -43.2369 -11.1448 -13.1407
ltibia 31.9954
lfoot -20.9854 -1.39642
ltoes -25.9022
48
root -26.3004 15.9051 -0.0135061 123.032 -83.7762 -112.029
lowerback 12.7972 2.12829 6.65176
upperback -10.1206 4.19144 0.288842
thorax -18.5515 0.941061 -4.53873
lowerneck -17.9839 -1.46778 -1.16587
upperneck 34.0991 -1.29344 -3.84356
head 14.8246 -1.59508 -1.71024
rclavicle 2.63762e-014 9.93923e-016
rhumerus -49.1295 16.5629 -85.6417
rradius 35.1032
rwrist -9.57707
rhand -26.6431 -21.2271
rfingers 7.12502
rthumb -0.075404 -51.2069
lclavicle 2.63762e-014 9.93923e-016
lhumerus -51.213 -4.44465 77.0355
lradius 29.3694
lwrist -4.87812
lhand -26.9549 28.7408
lfingers 7.12502
lthumb -0.376481 58.7202
rfemur -9.44368 4.47631 36.4793
rtibia 13.078
rfoot -16.9291 -5.78882
rtoes -2.66464
lfemur -42.6249 -9.19547 -15.1257
ltibia 37.5338
lfoot -22.2464 -5.19935
ltoes -25.7858
49
root -26.0445 15.945 -0.0169178 120.548 -84.1155 -109.725
lowerback 12.9176 2.05125 6.41266
upperback -10.0583 4.04823 0.302011
thorax -18.583 0.910832 -4.358
lowerneck -17.9882 -1.49497 -1.14428
upperneck 34.2188 -1.3907 -3.72557
head 14.8793 -1.61947 -1.68681
rclavicle 6.16232e-015 -1.94809e-014
rhumerus -49.6218 15.9923 -85.2678
rradius 34.7875
rwrist -9.49941
rhand -26.642 -21.143
rfingers 7.12502
rthumb -0.0743355 -51.1227
lclavicle 6.16232e-015 -1.94809e-014
lhumerus -50.6168 -4.49189 77.1673
lradius 29.4479
lwrist -5.08945
lhand -26.7901 29.0497
lfingers 7.12502
lthumb -0.217381 59.0293
rfemur -10.0718 4.30399 36.2072
rtibia 12.5438
rfoot -16.19 -6.14683
rtoes -2.44707
lfemur -41.5029 -7.42867 -16.9625
ltibia 42.9374
lfoot -23.5213 -8.42284
ltoes -25.5274
50
root -25.7985 15.9802 -0.0183848 118.166 -84.4503 -107.57
lowerback 12.9736 1.97723 6.17557
upperback -10.0065 3.90023 0.297821
thorax -18.5827 0.877765 -4.193
lowerneck -17.9227 -1.5081 -1.13677
upperneck 34.3115 -1.47183 -3.59016
head 14.9064 -1.63649 -1.64854
rclavicle -1.40392e-015 -5.1684e-015
rhumerus -50.2062 15.4014 -84.9468
rradius 34.5198
rwrist -9.53395
rhand -26.5921 -21.0409
rfingers 7.12502
rthumb -0.0261571 -51.0206
lclavicle -1.40392e-015 -5.1684e-015
lhumerus -50.0636 -4.6179 77.2823
lradius 29.7001
lwrist -5.18797
lhand -26.6799 29.338
lfingers 7.12502
lthumb -0.110877 59.3178
rfemur -10.5694 4.15983 35.9099
rtibia 11.9451
rfoot -15.4738 -6.52974
rtoes -2.16988
lfemur -39.9372 -5.72503 -18.6172
ltibia 48.0813
lfoot -24.3406 -11.0081
ltoes -25.1925
51
root -25.561 16.0099 -0.0184741 115.948 -84.7691 -105.58
lowerback 12.9375 1.90783 5.94718
upperback -9.97866 3.74941 0.277828
thorax -18.549 0.841373 -4.04524
lowerneck -17.808 -1.50299 -1.10742
upperneck 34.393 -1.52757 -3.479
head 14.9171 -1.64398 -1.61844
rclavicle -2.12327e-014 -9.93923e-017
rhumerus -50.8784 14.8337 -84.7132
rradius 34.2975
rwrist -9.69352
rhand -26.5228 -20.9428
rfingers 7.12502
rthumb 0.0408314 -50.9225
lclavicle -2.12327e-014 -9.93923e-017
lhumerus -49.5622 -4.79093 77.3442
lradius 30.1328
lwrist -5.18745
lhand -26.6414 29.4889
lfingers 7.12502
lthumb -0.073769 59.4686
rfemur -11.0122 4.08754 35.6058
rtibia 11.3351
rfoot -14.7625 -7.02998
rtoes -2.44183
lfemur -37.9866 -4.04125 -20.0382
ltibia 52.7358
lfoot -24.5273 -12.8917
ltoes -24.9862
52
root -25.3306 16.0334 -0.0168178 113.985 -85.0615 -103.816
lowerback 12.7964 1.84426 5.73928
upperback -9.97786 3.60029 0.246902
thorax -18.4766 0.802536 -3.91668
lowerneck -17.6771 -1.47802 -1.04673
upperneck 34.4863 -1.55272 -3.40641
head 14.9295 -1.64091 -1.6048
rclavicle 1.72446e-014 -1.98785e-016
rhumerus -51.6122 14.3164 -84.5753
rradius 34.0964
rwrist -9.96016
rhand -26.4237 -20.8899
rfingers 7.12502
rthumb 0.136557 -50.8696
lclavicle 1.72446e-014 -1.98785e-016
lhumerus -49.0994 -5.02677 77.3672
lradius 30.6873
lwrist -5.03934
lhand -26.6761 29.422
lfingers 7.12502
lthumb -0.10728 59.4017
rfemur -11.4545 4.12795 35.3038
rtibia 10.7521
rfoot -14.0118 -7.71094
rtoes -3.70008
lfemur -35.6683 -2.37731 -21.1901
ltibia 56.7246
lfoot -24.0818 -14.08
ltoes -24.828
53
root -25.106 16.0503 -0.0119782 112.364 -85.327 -102.354
lowerback 12.5484 1.78531 5.56774
upperback -9.99948 3.45546 0.207943
thorax -18.3579 0.760968 -3.81392
lowerneck -17.5534 -1.43506 -0.979811
upperneck 34.6063 -1.54686 -3.35532
head 14.9566 -1.62808 -1.59707
rclavicle -2.23136e-014 -1.54058e-014
rhumerus -52.382 13.8643 -84.525
rradius 33.8996
rwrist -10.286
rhand -26.2896 -20.9017
rfingers 7.12502
rthumb 0.266016 -50.8813
lclavicle -2.23136e-014 -1.54058e-014
lhumerus -48.6647 -5.29805 77.3469
lradius 31.3192
lwrist -4.74475
lhand -26.7442 29.12
lfingers 7.12502
lthumb -0.173009 59.0997
rfemur -11.9286 4.28765 34.9967
rtibia 10.2216
rfoot -13.1574 -8.6012
rtoes -6.16653
lfemur -32.9663 -0.79251 -22.0595
ltibia 59.8493
lfoot -23.0428 -14.5645
ltoes -24.6226
54
root -24.8852 16.0602 -0.00192515 111.164 -85.5786 -101.278
lowerback 12.2129 1.7276 5.44624
upperback -10.0383 3.3144 0.156611
thorax -18.1988 0.714021 -3.75094
lowerneck -17.4438 -1.37516 -0.925573
upperneck 34.7601 -1.51275 -3.30472
head 15.0038 -1.60625 -1.58407
rclavicle -2.37796e-014 -8.34896e-015
rhumerus -53.1539 13.4671 -84.5276
rradius 33.6816
rwrist -10.5604
rhand -26.0795 -20.99
rfingers 7.12502
rthumb 0.468938 -50.9692
lclavicle -2.37796e-014 -8.34896e-015
lhumerus -48.2518 -5.52391 77.2438
lradius 31.9933
lwrist -4.36953
lhand -26.8314 28.6088
lfingers 7.12502
lthumb -0.257271 58.5884
rfemur -12.467 4.52887 34.6588
rtibia 9.79191
rfoot -12.2096 -9.58235
rtoes -9.25982
lfemur -29.8727 0.599947 -22.6776
ltibia 61.9436
lfoot -21.4715 -14.3353
ltoes -24.5222
55
root -24.666 16.0625 0.0152625 110.506 -85.8449 -100.726
lowerback 11.8289 1.66796 5.37321
upperback -10.0907 3.1737 0.0810628
thorax -18.021 0.658437 -3.742
lowerneck -17.3256 -1.30077 -0.880496
upperneck 34.9324 -1.45632 -3.25335
head 15.0586 -1.57711 -1.56592
rclavicle 5.45415e-015 1.0635e-014
rhumerus -53.8946 13.076 -84.5253
rradius 33.4251
rwrist -10.6544
rhand -25.7479 -21.1489
rfingers 7.12502
rthumb 0.789221 -51.1272
lclavicle 5.45415e-015 1.0635e-014
lhumerus -47.8688 -5.73254 77.0863
lradius 32.6876
lwrist -3.87993
lhand -26.895 28.036
lfingers 7.12502
lthumb -0.318676 58.0155
rfemur -13.0934 4.8075 34.249
rtibia 9.51233
rfoot -11.2597 -10.4746
rtoes -11.8729
lfemur -26.4071 1.67388 -23.13
ltibia 62.9037
lfoot -19.4452 -13.4125
ltoes -24.6737
56
root -24.4458 16.0567 0.0408256 110.556 -86.1446 -100.886
lowerback 11.4422 1.60419 5.34278
upperback -10.153 3.0307 -0.0305547
thorax -17.8512 0.591779 -3.79915
lowerneck -17.1885 -1.21097 -0.833994
upperneck 35.1182 -1.38089 -3.19931
head 15.116 -1.54041 -1.54388
rclavicle 8.4235e-015 -2.48481e-015
rhumerus -54.5939 12.6588 -84.4921
rradius 33.1465
rwrist -10.5557
rhand -25.3097 -21.3529
rfingers 7.12502
rthumb 1.21245 -51.3292
lclavicle 8.4235e-015 -2.48481e-015
lhumerus -47.5199 -5.93391 76.8804
lradius 33.3813
lwrist -3.32888
lhand -26.8962 27.5594
lfingers 7.12502
lthumb -0.319788 57.5389
rfemur -13.8124 5.08158 33.7454
rtibia 9.3996
rfoot -10.3325 -11.2149
rtoes -13.5227
lfemur -22.6221 2.33173 -23.517
ltibia 62.6883
lfoot -17.0643 -11.9408
ltoes -25.1524
